# xmcd
#
# Track frame offsets: 
#        150
#        21127
#        32800
#        47350
#        61750
#        77425
#        92100
#        99590
#        111107
#        128455
#        134282
#        149962
#        163137
#
# Disc length: 2403 seconds
#
# Revision: 12
# Processed by: cddbd v1.5.2PL0 Copyright (c) Steve Scherf et al.
# Submitted via: ExactAudioCopy v1.0b3
#
DISCID=a709610d
DTITLE=久石譲 - 風の谷のナウシカ BEST Collection Disk2
DYEAR=1987
DGENRE=Anime
TTITLE0=オープニング「風の谷のナウシカ」
TTITLE1=王蟲の暴走
TTITLE2=風の谷
TTITLE3=虫愛ずる姫
TTITLE4=クシャナの侵略
TTITLE5=戦闘
TTITLE6=王蟲との交流
TTITLE7=腐海にて
TTITLE8=ペジテの全滅
TTITLE9=メーヴェとコルベットの戦い
TTITLE10=蘇る巨神兵
TTITLE11=ナウシカ・レクイエム
TTITLE12=エンディング「島の人」
EXTD=YEAR: 1987
EXTT0=
EXTT1=
EXTT2=
EXTT3=
EXTT4=
EXTT5=
EXTT6=
EXTT7=
EXTT8=
EXTT9=
EXTT10=
EXTT11=
EXTT12=
PLAYORDER=
